# xmcd CD database file
#
# Track frame offsets:
#	150
#	29882
#	52297
#	77985
#	108570
#	150647
#	191600
#	208362
#
# Disc length: 3116 seconds
#
# Revision: 0
# Processed by: cddbd v1.4PL0 Copyright (c) Steve Scherf et al.
# Submitted via: Feurio! 1.65 - http://www.feurio.com
#
DISCID=7b0c2a08
DTITLE=Stone The Crows - Niagara Disc 2 Live 1972
DYEAR=1900
DGENRE=Blues
TTITLE0=On The Highway
TTITLE1=Palace Of The King
TTITLE2=Penicillin Blues
TTITLE3=Sunset Cowboy
TTITLE4=Niagara
TTITLE5=Mr. Wizard
TTITLE6=I'm Not A Good Time Girl
TTITLE7=Goin' Down
EXTD=
EXTT0=
EXTT1=
EXTT2=
EXTT3=
EXTT4=
EXTT5=
EXTT6=
EXTT7=
PLAYORDER=
